<?xml version='1.0' encoding='utf-8'?>
<svg xmlns="http://www.w3.org/2000/svg" version="1.1" id="Layer_1" x="0px" y="0px" viewBox="0 0 4500 4500" style="enable-background:new 0 0 4500 4500;"> <style type="text/css"> .st0{fill:#F9F9F9;} .st1{fill:#D3AA62;} .st2{fill:#B59459;} .st3{fill:#C19D63;} .st4{fill:#EAB973;} .st5{fill:#C6A25C;} .st6{fill:#9E8357;} </style> <rect class="st0" width="4500" height="4500"/> <g> <polygon class="st1" points="2250,2118.14 316.07,1151.18 2250,184.21 4183.93,1151.18 "/> <polygon class="st2" points="2250,2118.14 4183.93,1151.18 4183.93,3348.82 2250,4315.79 "/> <polygon class="st3" points="3041.15,1722.56 3392.78,1546.75 3392.78,3744.4 3041.15,3920.21 "/> <polygon class="st4" points="3041.15,1722.56 1107.22,755.6 1458.85,579.79 3392.78,1546.75 "/> <polygon class="st5" points="2250,4315.79 316.07,3348.82 316.07,1151.18 2250,2118.14 "/> <path class="st6" d="M1297.93,2836.39v227.73c0,130.71,100.03,287.91,227.71,363.18v247.91l-171.87-85.69v51.29l389.76,194.33 v-51.29l-171.87-85.69v-247.91c127.68,52.04,227.71-5.42,227.71-136.12v-227.73l-105.73-52.71l-56.9,58.48l-33.23,92.1 l-0.72-101.05l33.59-78.07L1297.93,2836.39z"/> <path class="st6" d="M1046.87,3321.79V2860.8l59.25,29.75l-138-217.68l-138.5,78.83l59.25,29.75v462.02l-137.2-68v-464.91 l59.25,29.75l-138-217.68l-138.51,78.83l59.25,29.75v465.93l-57.66-28.57v163.38l0,0l559.51,279.75c4.87,2.44,10.6-1.11,10.6-6.55 v-154.03c0,0,0,0,0-0.01L1046.87,3321.79z"/> </g> </svg>