<?xml version="1.0" encoding="UTF-8"?>
<svg viewBox="0 0 223.45729 355.23779" xmlns="http://www.w3.org/2000/svg" xmlns:xlink="http://www.w3.org/1999/xlink">
 <g transform="translate(-335.6 -444.86)">
  <path d="m400.33 598.62c0 3.0817 0.2936 6.1557 0.8839 9.1924s1.4709 6.0255 2.6517 8.9272 2.6705 5.6983 4.4414 8.3748 3.8259 5.2401 6.1872 7.6014 4.925 4.4162 7.6014 6.1872 5.4731 3.2607 8.3749 4.4415 5.8905 2.0613 8.9271 2.6516 6.1108 0.884 9.1924 0.8839 6.2-0.2935 9.2366-0.8838 6.0036-1.4931 8.9052-2.6738 5.7204-2.6484 8.3968-4.4194 5.1959-3.8258 7.5573-6.1872 4.4383-4.9027 6.2092-7.5793 3.2387-5.4953 4.4195-8.3969 2.0833-5.8685 2.6737-8.9051 0.8838-6.1549 0.8838-9.2366c0.285-27.038-21.007-52.717-33.035-73.55-7.4149-12.843-23.227-13.138-30.472 0.032-11.459 20.831-32.943 50.258-33.035 73.54z" fill="#79a6d2"/>
  <path d="m461.04 543.76 13.473 23.085m5.9621 12.256c2.5048 4.3822 4.0905 9.2868 4.6252 14.306 1.2561 11.79-3.6336 24.065-12.652 31.763" fill="none" opacity=".95" stroke="#fff" stroke-linecap="round" stroke-width="5"/>
 </g>
</svg>
